HIERARCHY
ROOT pelvis
{
  OFFSET 0 100 0
  CHANNELS 6 Xposition Yposition Zposition Zrotation Xrotation Yrotation
  JOINT pelvis_right_femur
  {
    OFFSET -10.78128 -3.44521 -0.5502486
    CHANNELS 3 Zrotation Xrotation Yrotation
    JOINT right_femur_tibia
    {
      OFFSET -0.8047443 -44.0398 -0.1307829
      CHANNELS 3 Zrotation Xrotation Yrotation
      JOINT right_tibia_foot
      {
        OFFSET 3.006224 -47.83518 -5
        CHANNELS 3 Zrotation Xrotation Yrotation
        End Site
        {
          OFFSET 0 -5 15
        }
      }
    }
  }
  JOINT pelvis_left_femur
  {
    OFFSET 10.78128 -3.44521 -0.5502486
    CHANNELS 3 Zrotation Xrotation Yrotation
    JOINT left_femur_tibia
    {
      OFFSET 0.8047443 -44.0398 -0.1307829
      CHANNELS 3 Zrotation Xrotation Yrotation
      JOINT left_tibia_foot
      {
        OFFSET -4.370144 -48.10324 -4.275266
        CHANNELS 3 Zrotation Xrotation Yrotation
        End Site
        {
          OFFSET 0 -5 15
        }
      }
    }
  }
  JOINT pelvis_spine1
  {
    OFFSET 0 6.468898 -3.129235
    CHANNELS 3 Zrotation Xrotation Yrotation
    JOINT spine1
    {
      OFFSET 0 23.15396 4.99043
      CHANNELS 3 Zrotation Xrotation Yrotation
      JOINT spine2
      {
        OFFSET 0 20.79997 -5.064912
        CHANNELS 3 Zrotation Xrotation Yrotation
        JOINT neck
        {
          OFFSET 0 14.38658 9.616178
          CHANNELS 3 Zrotation Xrotation Yrotation
          End Site
          {
            OFFSET 0 20 0
          }
        }
      }
      JOINT right_manubrium
      {
        OFFSET -5.722621 16.35077 3.967754
        CHANNELS 3 Zrotation Xrotation Yrotation
        JOINT right_clavicle
        {
          OFFSET -13.16364 1.694482 -4.693211
          CHANNELS 3 Zrotation Xrotation Yrotation
          JOINT right_humerus
          {
            OFFSET -28.5034 -0.3100689 -2.792744
            CHANNELS 3 Zrotation Xrotation Yrotation
            JOINT right_radius
            {
              OFFSET -25.15693 0.02248979 -1.271978
              CHANNELS 3 Zrotation Xrotation Yrotation
              End Site
              {
                OFFSET -15 0 0
              }
            }
          }
        }
      }
      JOINT left_manubrium
      {
        OFFSET 5.722621 16.35077 3.967754
        CHANNELS 3 Zrotation Xrotation Yrotation
        JOINT left_clavicle
        {
          OFFSET 13.16364 1.694482 -4.693211
          CHANNELS 3 Zrotation Xrotation Yrotation
          JOINT left_humerus
          {
            OFFSET 29.39168 -1.063119 -2.237045
            CHANNELS 3 Zrotation Xrotation Yrotation
            JOINT left_radius
            {
              OFFSET 24.59957 -0.9528479 0.9047498
              CHANNELS 3 Zrotation Xrotation Yrotation
              End Site
              {
                OFFSET 15 -0 -0
              }
            }
          }
        }
      }
    }
  }
}
MOTION
Frames: 7
Frame Time: 0.0416666666667
-254.0302 103.9826 -262.1363 8.612674 -8.482078 50.77287 6.073674 17.31717 5.35746 -0 26.72688 -0 -7.307209 -18.61321 -6.655194 4.753789 -16.65496 -2.683004 -0 19.78692 -0 4.74337 2.101455 15.56004 1.753888 -5.199704 8.741941 0.1120437 18.16406 -6.450345 1.472177 17.77045 1.057387 -0.7486956 -16.22252 4.42649 -1.298544 -32.8883 12.89519 89.18985 13.31369 -9.409082 -0 0 34.97679 -22.02842 22.96339 14.12396 0.0947838 -22.14775 -9.356924 -96.88022 9.676247 42.49273 0 0 -5.133306 2.672396 14.17581 10.44563
-249.4137 103.9817 -259.7968 8.518856 -8.576305 50.14031 6.073674 17.31717 5.35746 -0 26.72688 -0 -7.307209 -18.61321 -6.655194 4.753789 -16.65496 -2.683004 -0 19.78692 -0 4.74337 2.101455 15.56004 1.753888 -5.199704 8.741941 0.1120437 18.16406 -6.450345 1.472177 17.77045 1.057387 -0.7486956 -16.22252 4.42649 -1.298544 -32.8883 12.89519 89.18985 13.31369 -9.409082 -0 0 34.97679 -22.02842 22.96339 14.12396 0.0947838 -22.14775 -9.356924 -96.88022 9.676247 42.49273 0 0 -5.133306 2.672396 14.17581 10.44563
-244.8234 103.9808 -257.4064 8.423968 -8.6695 49.50744 6.073674 17.31717 5.35746 -0 26.72688 -0 -7.307209 -18.61321 -6.655194 4.753789 -16.65496 -2.683004 -0 19.78692 -0 4.74337 2.101455 15.56004 1.753888 -5.199704 8.741941 0.1120437 18.16406 -6.450345 1.472177 17.77045 1.057387 -0.7486956 -16.22252 4.42649 -1.298544 -32.8883 12.89519 89.18985 13.31369 -9.409082 -0 0 34.97679 -22.02842 22.96339 14.12396 0.0947838 -22.14775 -9.356924 -96.88022 9.676247 42.49273 0 0 -5.133306 2.672396 14.17581 10.44563
-240.2597 103.9798 -254.9655 8.328021 -8.761654 48.87425 6.073674 17.31717 5.35746 -0 26.72688 -0 -7.307209 -18.61321 -6.655194 4.753789 -16.65496 -2.683004 -0 19.78692 -0 4.74337 2.101455 15.56004 1.753888 -5.199704 8.741941 0.1120437 18.16406 -6.450345 1.472177 17.77045 1.057387 -0.7486956 -16.22252 4.42649 -1.298544 -32.8883 12.89519 89.18985 13.31369 -9.409082 -0 0 34.97679 -22.02842 22.96339 14.12396 0.0947838 -22.14775 -9.356924 -96.88022 9.676247 42.49273 0 0 -5.133306 2.672396 14.17581 10.44563
-235.7233 103.9789 -252.4744 8.231025 -8.852754 48.24076 6.073674 17.31717 5.35746 -0 26.72688 -0 -7.307209 -18.61321 -6.655194 4.753789 -16.65496 -2.683004 -0 19.78692 -0 4.74337 2.101455 15.56004 1.753888 -5.199704 8.741941 0.1120437 18.16406 -6.450345 1.472177 17.77045 1.057387 -0.7486956 -16.22252 4.42649 -1.298544 -32.8883 12.89519 89.18985 13.31369 -9.409082 -0 0 34.97679 -22.02842 22.96339 14.12396 0.0947838 -22.14775 -9.356924 -96.88022 9.676247 42.49273 0 0 -5.133306 2.672396 14.17581 10.44563
-231.2146 103.9779 -249.9334 8.132992 -8.942788 47.60695 6.073674 17.31717 5.35746 -0 26.72688 -0 -7.307209 -18.61321 -6.655194 4.753789 -16.65496 -2.683004 -0 19.78692 -0 4.74337 2.101455 15.56004 1.753888 -5.199704 8.741941 0.1120437 18.16406 -6.450345 1.472177 17.77045 1.057387 -0.7486956 -16.22252 4.42649 -1.298544 -32.8883 12.89519 89.18985 13.31369 -9.409082 -0 0 34.97679 -22.02842 22.96339 14.12396 0.0947838 -22.14775 -9.356924 -96.88022 9.676247 42.49273 0 0 -5.133306 2.672396 14.17581 10.44563
-226.7343 103.977 -247.3427 8.033932 -9.031745 46.97283 6.073674 17.31717 5.35746 -0 26.72688 -0 -7.307209 -18.61321 -6.655194 4.753789 -16.65496 -2.683004 -0 19.78692 -0 4.74337 2.101455 15.56004 1.753888 -5.199704 8.741941 0.1120437 18.16406 -6.450345 1.472177 17.77045 1.057387 -0.7486956 -16.22252 4.42649 -1.298544 -32.8883 12.89519 89.18985 13.31369 -9.409082 -0 0 34.97679 -22.02842 22.96339 14.12396 0.0947838 -22.14775 -9.356924 -96.88022 9.676247 42.49273 0 0 -5.133306 2.672396 14.17581 10.44563
